# xmcd CD database file
#
# Track frame offsets:
#	150
#	24155
#	64472
#	85957
#	113320
#	137050
#	169410
#	198155
#
# Disc length: 3061 seconds
#
# Revision: 0
# Processed by: cddbd v1.5.1PL0 Copyright (c) Steve Scherf et al.
# Submitted via: CDex 1.51
#
DISCID=630bf308
DTITLE=The Crusaders - Live In Japan 2003
DYEAR=2004
DGENRE=Jazz
TTITLE0=I Felt The Love
TTITLE1=Creepin'
TTITLE2=It Happens Everyday
TTITLE3=Shotgun House Groove
TTITLE4=Carnival Of The Night
TTITLE5=Ballad For Joe
TTITLE6=Way Back Home
TTITLE7=Put It Where You Want It
EXTD=YEAR: 2004
EXTT0=
EXTT1=
EXTT2=
EXTT3=
EXTT4=
EXTT5=
EXTT6=
EXTT7=
PLAYORDER=
